# xmcd CD database file
# Copyright (C) 1993-1998 Ti Kan
#
# Track frame offsets:
#	150
#	15190
#	42170
#	63005
#	81520
#	99975
#	120500
#	136492
#	149577
#	168905
#	183897
#	194847
#	212242
#
# Disc length: 3052 seconds
#
# Revision: 1
# Processed by: cddbd v1.4b41PL1 Copyright (c) Steve Scherf et al.
# Submitted via: CDValet v3.31 - Copyright (c) 1997 Greg Leichner
#
DISCID=b20bea0d
DTITLE=Tears for Fears - Tears Laid Low - An Alter Collection
DYEAR=1900
DGENRE=
TTITLE0=Tears Roll Down
TTITLE1=Johnny Panic and The Bible of Dreams
TTITLE2=Always In The Past
TTITLE3=We Are Broken
TTITLE4=The Conflict
TTITLE5=My Life in the Suicide Ranks
TTITLE6=Music for Tables
TTITLE7=Empire Building
TTITLE8=The Marauders
TTITLE9=The Big Chair
TTITLE10=When in Love with a Blind Man
TTITLE11=Sea Song
TTITLE12=Pharoahs
EXTD=
EXTT0=
EXTT1=
EXTT2=
EXTT3=
EXTT4=
EXTT5=
EXTT6=
EXTT7=
EXTT8=
EXTT9=
EXTT10=
EXTT11=
EXTT12=
PLAYORDER=
